<svg width="76" height="75" viewBox="0 0 76 75" fill="none" xmlns="http://www.w3.org/2000/svg">
<g clip-path="url(#clip0_7845_2997)">
<path d="M28.2969 1.28543C38.2945 -1.39377 48.4356 0.235135 56.7471 5.03396L56.8585 5.10281C65.1158 9.91042 71.5494 17.8499 74.2139 27.7976C76.8931 37.7952 75.2642 47.9348 70.4654 56.2463L70.3965 56.3577C65.5889 64.615 57.6495 71.0486 47.7017 73.7146C39.1046 76.0188 30.4019 75.1355 22.8477 71.7927C19.8975 70.4875 17.1129 68.7927 14.5919 66.7815C8.54792 61.9592 3.93806 55.2356 1.78474 47.2024C-0.89153 37.2092 0.735911 27.0711 5.53474 18.761C10.3336 10.4466 18.3023 3.96316 28.2969 1.28543ZM19.7803 55.4363C19.7383 55.4785 19.6884 55.5121 19.6334 55.535C19.5784 55.5579 19.5194 55.5698 19.4598 55.57C19.4003 55.5701 19.3412 55.5585 19.2861 55.5358C19.231 55.5131 19.181 55.4798 19.1387 55.4377L17.7266 54.0344C17.6457 53.9584 17.5953 53.8554 17.5848 53.7449C17.5743 53.6344 17.6044 53.5238 17.6695 53.4338C19.2574 51.2732 21.0826 49.4553 23.0689 47.9758C27.4927 44.6843 32.7237 43.0715 37.9517 43.095C43.1768 43.1199 48.4019 44.7781 52.817 48.0212C54.8472 49.5139 56.7076 51.345 58.3189 53.5056C58.461 53.6843 58.4478 53.9451 58.2823 54.1091L56.9258 55.4612C56.8402 55.5463 56.7243 55.5941 56.6036 55.5941C56.4828 55.5941 56.3669 55.5463 56.2813 55.4612C55.9839 55.1697 55.6895 54.8884 55.3746 54.616C50.9478 50.7678 44.4322 48.7859 37.9356 48.7537C31.4639 48.7214 25.023 50.6243 20.7017 54.5383C20.378 54.8313 20.0836 55.1272 19.7803 55.4363ZM50.5963 21.468C52.4229 24.1106 52.4229 28.3411 50.5963 30.9851C48.7081 33.72 45.522 33.7185 43.6324 30.9851C41.8072 28.3411 41.8072 24.1106 43.6324 21.468C45.522 18.7332 48.7081 18.7332 50.5963 21.468ZM32.9127 21.468C34.7379 24.1106 34.7379 28.3411 32.9127 30.9851C31.023 33.7185 27.837 33.72 25.9488 30.9851C24.1236 28.3411 24.1236 24.1106 25.9488 21.468C27.837 18.7332 31.023 18.7332 32.9127 21.468ZM54.7535 8.47634C47.3297 4.19021 38.2667 2.73709 29.3253 5.13211C20.3839 7.52859 13.2603 13.3176 8.97712 20.7385C4.68952 28.1638 3.2364 37.2297 5.63288 46.1741C7.63972 53.6638 12.0284 59.8777 17.7618 64.2166C19.9528 65.8718 22.3376 67.2536 24.8634 68.3313C31.5181 71.1716 39.1397 71.8865 46.6734 69.8679C55.5797 67.4817 62.6798 61.7307 66.9688 54.3523L67.023 54.2527C71.3091 46.8303 72.7623 37.7659 70.3672 28.8259C67.981 19.9212 62.23 12.8211 54.8531 8.53054L54.7535 8.47634Z" fill="#FA1F00"/>
</g>
<defs>
<clipPath id="clip0_7845_2997">
<rect width="75" height="75.0014" fill="white" transform="translate(0.5 -0.000732422)"/>
</clipPath>
</defs>
</svg>
