<svg width="70" height="69" viewBox="0 0 70 69" fill="none" xmlns="http://www.w3.org/2000/svg">
<path d="M35 0.125C16.0937 0.125 0.625 15.5937 0.625 34.5C0.625 53.4062 16.0937 68.875 35 68.875C53.9062 68.875 69.375 53.4062 69.375 34.5C69.375 15.5937 53.9062 0.125 35 0.125ZM51.25 27.7812L33.2812 45.5937C32.6562 46.2187 31.875 46.5312 31.0937 46.5312C30.3125 46.5312 29.5312 46.2187 28.9062 45.5937L18.75 35.4375C17.5 34.1875 17.5 32.3125 18.75 31.0625C20 29.8125 21.875 29.8125 23.125 31.0625L31.0937 39.0312L46.875 23.25C48.125 22 50 22 51.25 23.25C52.5 24.5 52.5 26.5312 51.25 27.7812Z" fill="#FA1F00"/>
</svg>
