<svg width="34" height="34" viewBox="0 0 34 34" fill="none" xmlns="http://www.w3.org/2000/svg">
<path d="M24.845 7.67289L18.1784 0.835555C18.0236 0.67637 17.8396 0.550075 17.6372 0.463903C17.4347 0.37773 17.2176 0.333374 16.9984 0.333374C16.7792 0.333374 16.5621 0.37773 16.3596 0.463903C16.1571 0.550075 15.9732 0.67637 15.8184 0.835555L9.15171 7.67289C8.83919 7.99385 8.6638 8.429 8.66411 8.88259C8.66443 9.33619 8.84042 9.77108 9.15337 10.0916C9.46633 10.4121 9.89061 10.592 10.3329 10.5917C10.7752 10.5913 11.1992 10.4108 11.5117 10.0899L15.3334 6.17038V20.8467C15.3334 21.3001 15.509 21.7348 15.8215 22.0554C16.1341 22.376 16.558 22.556 17 22.556C17.4421 22.556 17.866 22.376 18.1786 22.0554C18.4911 21.7348 18.6667 21.3001 18.6667 20.8467V6.17038L22.4884 10.0899C22.8027 10.4013 23.2237 10.5735 23.6607 10.5696C24.0977 10.5658 24.5157 10.386 24.8247 10.0691C25.1338 9.75214 25.309 9.32341 25.3128 8.87523C25.3166 8.42705 25.1486 7.99527 24.845 7.67289Z" fill="#9CA3AF"/>
<path d="M30.3334 19.992H22V20.8467C22 22.2067 21.4733 23.5111 20.5356 24.4728C19.5979 25.4344 18.3261 25.9747 17 25.9747C15.674 25.9747 14.4022 25.4344 13.4645 24.4728C12.5268 23.5111 12 22.2067 12 20.8467V19.992H3.66671C2.78265 19.992 1.93481 20.3522 1.30968 20.9934C0.684563 21.6345 0.333374 22.504 0.333374 23.4107V30.248C0.333374 31.1547 0.684563 32.0243 1.30968 32.6654C1.93481 33.3065 2.78265 33.6667 3.66671 33.6667H30.3334C31.2174 33.6667 32.0653 33.3065 32.6904 32.6654C33.3155 32.0243 33.6667 31.1547 33.6667 30.248V23.4107C33.6667 22.504 33.3155 21.6345 32.6904 20.9934C32.0653 20.3522 31.2174 19.992 30.3334 19.992ZM26.1667 30.248C25.6723 30.248 25.1889 30.0977 24.7778 29.8159C24.3667 29.5342 24.0462 29.1338 23.857 28.6652C23.6678 28.1967 23.6183 27.6812 23.7147 27.1838C23.8112 26.6865 24.0493 26.2296 24.3989 25.871C24.7486 25.5124 25.194 25.2682 25.679 25.1693C26.1639 25.0704 26.6666 25.1212 27.1234 25.3152C27.5802 25.5093 27.9707 25.8379 28.2454 26.2596C28.5201 26.6812 28.6667 27.1769 28.6667 27.684C28.6667 28.3641 28.4033 29.0162 27.9345 29.4971C27.4656 29.9779 26.8297 30.248 26.1667 30.248Z" fill="#9CA3AF"/>
</svg>
