<svg width="19" height="20" viewBox="0 0 19 20" fill="none" xmlns="http://www.w3.org/2000/svg">
<path fill-rule="evenodd" clip-rule="evenodd" d="M1.66667 10C1.66667 5.6975 5.15453 2.20964 9.45703 2.20964C13.7595 2.20964 17.2474 5.6975 17.2474 10C17.2474 14.3025 13.7595 17.7904 9.45703 17.7904C5.15453 17.7904 1.66667 14.3025 1.66667 10ZM9.45703 0.542973C4.23405 0.542973 0 4.77703 0 10C0 15.223 4.23405 19.457 9.45703 19.457C14.68 19.457 18.9141 15.223 18.9141 10C18.9141 4.77703 14.68 0.542973 9.45703 0.542973ZM9.49587 13.2814L14.4885 8.10722L13.0493 6.71848L8.68053 11.2461L5.75891 8.97522L4.53153 10.5543L8.16256 13.3766L8.87197 13.928L9.49587 13.2814Z" fill="#FA1F00"/>
</svg>
