<svg width="22" height="22" viewBox="0 0 22 22" fill="none" xmlns="http://www.w3.org/2000/svg">
<g clip-path="url(#clip0_6284_3798)">
<path d="M14.6667 2.75H0.916672V14.6667H14.6667V2.75Z" stroke="#FA1F00" stroke-width="2" stroke-linecap="round" stroke-linejoin="round"/>
<path d="M14.6667 7.33333H18.3333L21.0833 10.0833V14.6667H14.6667V7.33333Z" stroke="#FA1F00" stroke-width="2" stroke-linecap="round" stroke-linejoin="round"/>
<path d="M5.04167 19.25C6.30732 19.25 7.33333 18.224 7.33333 16.9583C7.33333 15.6927 6.30732 14.6667 5.04167 14.6667C3.77601 14.6667 2.75 15.6927 2.75 16.9583C2.75 18.224 3.77601 19.25 5.04167 19.25Z" stroke="#FA1F00" stroke-width="2" stroke-linecap="round" stroke-linejoin="round"/>
<path d="M16.9583 19.25C18.224 19.25 19.25 18.224 19.25 16.9583C19.25 15.6927 18.224 14.6667 16.9583 14.6667C15.6927 14.6667 14.6667 15.6927 14.6667 16.9583C14.6667 18.224 15.6927 19.25 16.9583 19.25Z" stroke="#FA1F00" stroke-width="2" stroke-linecap="round" stroke-linejoin="round"/>
</g>
<defs>
<clipPath id="clip0_6284_3798">
<rect width="22" height="22" fill="white"/>
</clipPath>
</defs>
</svg>
