<svg width="70" height="71" viewBox="0 0 70 71" fill="none" xmlns="http://www.w3.org/2000/svg">
<path d="M5.97489 1.52585C4.60803 0.159027 2.39197 0.159027 1.02512 1.52585C-0.341705 2.8927 -0.341705 5.10877 1.02512 6.47562L64.0252 69.4757C65.392 70.8424 67.6082 70.8424 68.9749 69.4757C70.3417 68.1089 70.3417 65.8927 68.9749 64.5259L50.3763 45.9273C51.1844 44.5822 51.0087 42.8112 49.8492 41.6517C47.2256 39.0281 44.0808 37.2438 40.7477 36.2988L33.0194 28.5704C40.83 28.0201 48.8275 30.7306 54.7989 36.702C56.1656 38.0687 58.3818 38.0687 59.7486 36.702C61.1153 35.3349 61.1153 33.119 59.7486 31.7519C50.8383 22.8417 38.3187 19.74 26.8959 22.4469L21.4306 16.9816C35.8082 11.5583 52.4203 15.0268 63.9398 27.387C65.2576 28.8011 67.4724 28.8791 68.8864 27.5612C70.3004 26.2433 70.3784 24.0286 69.0607 22.6145C54.7618 7.27222 33.6361 3.61063 16.0787 11.6297L5.97489 1.52585Z" fill="#FA1F00"/>
<path d="M0.939617 22.6145C-0.378309 24.0286 -0.30033 26.2433 1.11374 27.5612C2.52785 28.8791 4.74255 28.8011 6.06044 27.387C7.51952 25.8215 9.06025 24.3986 10.6678 23.1183L5.69038 18.1409C4.03869 19.5016 2.45102 20.9928 0.939617 22.6145Z" fill="#FA1F00"/>
<path d="M15.1887 27.6395C13.4505 28.8357 11.7963 30.2063 10.2507 31.7519C8.88388 33.119 8.88388 35.3348 10.2507 36.7019C11.6175 38.0687 13.8336 38.0687 15.2004 36.7019C16.7574 35.1448 18.4521 33.8095 20.2452 32.6962L15.1887 27.6395Z" fill="#FA1F00"/>
<path d="M25.3785 37.8286C23.4958 38.7992 21.7291 40.0735 20.1511 41.6517C18.7843 43.0184 18.7843 45.2346 20.1511 46.6014C21.5179 47.9681 23.734 47.9681 25.1009 46.6014C26.7314 44.9707 28.6641 43.8266 30.7186 43.1686L25.3785 37.8286Z" fill="#FA1F00"/>
<path d="M35 63.5007C31.1339 63.5007 28 60.3668 28 56.5007C28 52.6346 31.1339 49.5007 35 49.5007C38.8661 49.5007 42 52.6346 42 56.5007C42 60.3668 38.8661 63.5007 35 63.5007Z" fill="#FA1F00"/>
</svg>
