<svg width="22" height="22" viewBox="0 0 22 22" fill="none" xmlns="http://www.w3.org/2000/svg">
<path fill-rule="evenodd" clip-rule="evenodd" d="M17.1482 8.06328C17.1482 9.21455 17.4524 9.89313 18.1221 10.6751C18.6295 11.2512 18.7917 11.9907 18.7917 12.793C18.7917 13.5944 18.5284 14.3551 18.0009 14.9728C17.3103 15.7132 16.3364 16.1859 15.3425 16.268C13.9021 16.3908 12.4609 16.4942 11.0005 16.4942C9.53916 16.4942 8.0988 16.4324 6.65845 16.268C5.6636 16.1859 4.68969 15.7132 4.00004 14.9728C3.47254 14.3551 3.20834 13.5944 3.20834 12.793C3.20834 11.9907 3.37142 11.2512 3.87796 10.6751C4.56853 9.89313 4.85277 9.21455 4.85277 8.06328V7.67276C4.85277 6.13096 5.23723 5.12279 6.02892 4.13585C7.20599 2.69653 9.09275 1.83331 10.9595 1.83331H11.0415C12.9483 1.83331 14.8961 2.73808 16.0531 4.23926C16.8038 5.20588 17.1482 6.17158 17.1482 7.67276V8.06328ZM8.31754 18.3891C8.31754 17.9275 8.74118 17.716 9.13293 17.6256C9.59118 17.5286 12.3835 17.5286 12.8418 17.6256C13.2335 17.716 13.6571 17.9275 13.6571 18.3891C13.6344 18.8285 13.3765 19.2181 13.0203 19.4656C12.5584 19.8256 12.0164 20.0537 11.4497 20.1358C11.1363 20.1765 10.8284 20.1774 10.5259 20.1358C9.95833 20.0537 9.41626 19.8256 8.95527 19.4646C8.59815 19.2181 8.34032 18.8285 8.31754 18.3891Z" fill="#052145"/>
</svg>
